# xmcd CD Database Entry
#
# Track frame offsets:
# 150
# 17357
# 52817
# 68915
#
# Disc length: 1363 seconds
#
# Revision: 2
# Processed by: cddbd v1.4b41PL1 Copyright (c) Steve Scherf et al.
# Submitted via: tcd 2.0b
#
DISCID=25055104
DTITLE=Vanessa-Mae - Storm
DYEAR=1900
DGENRE=
TTITLE0=Storm
TTITLE1=Storm (Soundscape Mix)
TTITLE2=Toccata and Fugue (D's Journey Mix)
TTITLE3=Toccata and Fugue (D's Hiphouse Mix)
EXTD=
EXTT0=
EXTT1=
EXTT2=radio edit\n
EXTT3=
PLAYORDER=
